<svg width="32" height="32" viewBox="0 0 32 32" fill="none" xmlns="http://www.w3.org/2000/svg">
<path fill-rule="evenodd" clip-rule="evenodd" d="M25.7181 22.72L23.9981 21V14.3333C23.9981 10.24 21.8114 6.81333 17.9981 5.90667V5C17.9981 3.89333 17.1048 3 15.9981 3C14.8914 3 13.9981 3.89333 13.9981 5V5.90667C10.1714 6.81333 7.99812 10.2267 7.99812 14.3333V21L6.27812 22.72C5.43812 23.56 6.02478 25 7.21145 25H24.7714C25.9714 25 26.5581 23.56 25.7181 22.72ZM10.6648 22.3333V14.3333C10.6648 11.0267 12.6781 8.33333 15.9981 8.33333C19.3181 8.33333 21.3314 11.0267 21.3314 14.3333V22.3333H10.6648ZM18.6648 26.3333C18.6648 27.8 17.4648 29 15.9981 29C14.5181 29 13.3314 27.8 13.3314 26.3333H18.6648Z" fill="#1E293B"/>
</svg>
